<?xml version="1.0" encoding="UTF-8" standalone="no"?>
<!-- Created with Inkscape (http://www.inkscape.org/) -->

<svg
   width="24"
   height="24"
   viewBox="0 0 24 24"
   version="1.1"
   id="svg1"
   xmlns="http://www.w3.org/2000/svg"
   xmlns:svg="http://www.w3.org/2000/svg">
  <defs
     id="defs1" />
  <g
     id="g3"
     style="display:inline"
     transform="translate(-263.75)">
    <g
       id="g2"
       style="fill:#ffffff;stroke-width:1;stroke-dasharray:none"
       transform="matrix(0.17692308,0,0,0.17692308,259.82692,-3.9230768)">
      <path
         id="path1"
         style="fill:#000000;stroke-width:1;stroke-dasharray:none"
         d="m 70.000651,35.003906 c -9.337654,0 -17.179184,6.396034 -19.381511,15.048177 -0.679409,2.66915 -2.858345,4.951172 -5.619791,4.951172 C 33.919349,55.003255 25,63.922604 25,75.002604 v 49.994136 c 0,11.08 8.919349,19.99935 19.999349,19.99935 h 90.001301 c 11.08,0 19.99935,-8.91935 19.99935,-19.99935 V 75.002604 c 0,-11.08 -8.91935,-19.999349 -19.99935,-19.999349 -2.76145,0 -4.94037,-2.282015 -5.61979,-4.951172 C 127.17853,41.399947 119.337,35.003906 109.99935,35.003906 Z M 90,64.998698 A 30,30 0 0 1 120.00326,95.001953 30,30 0 0 1 90,124.99674 30,30 0 0 1 59.996745,95.001953 30,30 0 0 1 90,64.998698 Z m 0,10.003906 A 20,20 0 0 0 70.000651,95.001953 20,20 0 0 0 90,115.0013 20,20 0 0 0 109.99935,95.001953 20,20 0 0 0 90,75.002604 Z" />
    </g>
  </g>
</svg>
